{
    "asset" : {
        "generator" : "Khronos glTF Blender I/O v1.1.45",
        "version" : "2.0"
    },
    "scene" : 0,
    "scenes" : [
        {
            "name" : "Scene",
            "nodes" : [
                1
            ]
        }
    ],
    "nodes" : [
        {
            "mesh" : 0,
            "name" : "pCube2",
            "scale" : [
                20.55848503112793,
                20.55848503112793,
                20.55848503112793
            ],
            "translation" : [
                0,
                -16.94087028503418,
                0
            ]
        },
        {
            "children" : [
                0
            ],
            "name" : "group9",
            "rotation" : [
                1,
                0,
                0,
                -1.3435885648505064e-07
            ],
            "scale" : [
                0.009999999776482582,
                0.009999999776482582,
                0.009999999776482582
            ]
        }
    ],
    "materials" : [
        {
            "doubleSided" : true,
            "emissiveFactor" : [
                0,
                0,
                0
            ],
            "name" : "ticketsmat.001",
            "normalTexture" : {
                "index" : 0,
                "texCoord" : 0
            },
            "pbrMetallicRoughness" : {
                "baseColorTexture" : {
                    "index" : 1,
                    "texCoord" : 0
                },
                "metallicRoughnessTexture" : {
                    "index" : 2,
                    "texCoord" : 0
                }
            }
        }
    ],
    "meshes" : [
        {
            "name" : "Mesh.002",
            "primitives" : [
                {
                    "attributes" : {
                        "POSITION" : 0,
                        "NORMAL" : 1,
                        "TEXCOORD_0" : 2
                    },
                    "indices" : 3,
                    "material" : 0
                }
            ]
        }
    ],
    "textures" : [
        {
            "source" : 0
        },
        {
            "source" : 1
        },
        {
            "source" : 2
        }
    ],
    "images" : [
        {
            "mimeType" : "image/png",
            "name" : "tickets_ticket_obj_Normal",
            "uri" : "tickets_ticket_obj_Normal.png"
        },
        {
            "mimeType" : "image/png",
            "name" : "tickets_ticket_obj_BaseColor",
            "uri" : "tickets_ticket_obj_BaseColor.png"
        },
        {
            "mimeType" : "image/png",
            "name" : "tickets_ticket_obj_Metallic-tickets_ticket_obj_Roughness",
            "uri" : "tickets_ticket_obj_Metallic-tickets_ticket_obj_Roughness.png"
        }
    ],
    "accessors" : [
        {
            "bufferView" : 0,
            "componentType" : 5126,
            "count" : 22,
            "max" : [
                0.8152408599853516,
                0.6000000238418579,
                0.5000019073486328
            ],
            "min" : [
                -0.8152408599853516,
                -0.3999999761581421,
                -0.5000014305114746
            ],
            "type" : "VEC3"
        },
        {
            "bufferView" : 1,
            "componentType" : 5126,
            "count" : 22,
            "type" : "VEC3"
        },
        {
            "bufferView" : 2,
            "componentType" : 5126,
            "count" : 22,
            "type" : "VEC2"
        },
        {
            "bufferView" : 3,
            "componentType" : 5123,
            "count" : 30,
            "type" : "SCALAR"
        }
    ],
    "bufferViews" : [
        {
            "buffer" : 0,
            "byteLength" : 264,
            "byteOffset" : 0
        },
        {
            "buffer" : 0,
            "byteLength" : 264,
            "byteOffset" : 264
        },
        {
            "buffer" : 0,
            "byteLength" : 176,
            "byteOffset" : 528
        },
        {
            "buffer" : 0,
            "byteLength" : 60,
            "byteOffset" : 704
        }
    ],
    "buffers" : [
        {
            "byteLength" : 764,
            "uri" : "closebox2.bin"
        }
    ]
}
